<mxfile host="app.diagrams.net" modified="2024-04-01T19:09:47.363Z" agent="Mozilla/5.0 (Windows NT 10.0; Win64; x64) AppleWebKit/537.36 (KHTML, like Gecko) Chrome/123.0.0.0 Safari/537.36 Edg/123.0.0.0" etag="oXgnnH1cjp9P5JGNlaBD" version="24.2.1" type="device">
  <diagram name="PÃ¡gina-1" id="4M9NjGMTUI3gjB8mIwD7">
    <mxGraphModel dx="1434" dy="827" grid="1" gridSize="10" guides="1" tooltips="1" connect="1" arrows="1" fold="1" page="1" pageScale="1" pageWidth="827" pageHeight="1169" math="0" shadow="0">
      <root>
        <mxCell id="0" />
        <mxCell id="1" parent="0" />
        <mxCell id="fCYQi03bteLUAOn5DDM0-8" style="edgeStyle=orthogonalEdgeStyle;rounded=0;orthogonalLoop=1;jettySize=auto;html=1;curved=1;" edge="1" parent="1" source="fCYQi03bteLUAOn5DDM0-1" target="fCYQi03bteLUAOn5DDM0-3">
          <mxGeometry relative="1" as="geometry" />
        </mxCell>
        <mxCell id="fCYQi03bteLUAOn5DDM0-9" style="edgeStyle=orthogonalEdgeStyle;rounded=0;orthogonalLoop=1;jettySize=auto;html=1;curved=1;" edge="1" parent="1" source="fCYQi03bteLUAOn5DDM0-1" target="fCYQi03bteLUAOn5DDM0-2">
          <mxGeometry relative="1" as="geometry" />
        </mxCell>
        <mxCell id="fCYQi03bteLUAOn5DDM0-1" value="1" style="ellipse;whiteSpace=wrap;html=1;" vertex="1" parent="1">
          <mxGeometry x="310" y="170" width="120" height="80" as="geometry" />
        </mxCell>
        <mxCell id="fCYQi03bteLUAOn5DDM0-10" style="edgeStyle=orthogonalEdgeStyle;rounded=0;orthogonalLoop=1;jettySize=auto;html=1;curved=1;" edge="1" parent="1" source="fCYQi03bteLUAOn5DDM0-2" target="fCYQi03bteLUAOn5DDM0-7">
          <mxGeometry relative="1" as="geometry" />
        </mxCell>
        <mxCell id="fCYQi03bteLUAOn5DDM0-11" style="edgeStyle=orthogonalEdgeStyle;rounded=0;orthogonalLoop=1;jettySize=auto;html=1;curved=1;" edge="1" parent="1" source="fCYQi03bteLUAOn5DDM0-2" target="fCYQi03bteLUAOn5DDM0-6">
          <mxGeometry relative="1" as="geometry" />
        </mxCell>
        <mxCell id="fCYQi03bteLUAOn5DDM0-2" value="3" style="ellipse;whiteSpace=wrap;html=1;" vertex="1" parent="1">
          <mxGeometry x="440" y="280" width="120" height="80" as="geometry" />
        </mxCell>
        <mxCell id="fCYQi03bteLUAOn5DDM0-12" style="edgeStyle=orthogonalEdgeStyle;rounded=0;orthogonalLoop=1;jettySize=auto;html=1;curved=1;" edge="1" parent="1" source="fCYQi03bteLUAOn5DDM0-3" target="fCYQi03bteLUAOn5DDM0-5">
          <mxGeometry relative="1" as="geometry" />
        </mxCell>
        <mxCell id="fCYQi03bteLUAOn5DDM0-15" style="edgeStyle=orthogonalEdgeStyle;rounded=0;orthogonalLoop=1;jettySize=auto;html=1;curved=1;" edge="1" parent="1" source="fCYQi03bteLUAOn5DDM0-3" target="fCYQi03bteLUAOn5DDM0-4">
          <mxGeometry relative="1" as="geometry">
            <mxPoint x="120" y="400" as="targetPoint" />
          </mxGeometry>
        </mxCell>
        <mxCell id="fCYQi03bteLUAOn5DDM0-3" value="2" style="ellipse;whiteSpace=wrap;html=1;" vertex="1" parent="1">
          <mxGeometry x="190" y="280" width="120" height="80" as="geometry" />
        </mxCell>
        <mxCell id="fCYQi03bteLUAOn5DDM0-4" value="4" style="ellipse;whiteSpace=wrap;html=1;" vertex="1" parent="1">
          <mxGeometry x="70" y="430" width="120" height="80" as="geometry" />
        </mxCell>
        <mxCell id="fCYQi03bteLUAOn5DDM0-5" value="5" style="ellipse;whiteSpace=wrap;html=1;" vertex="1" parent="1">
          <mxGeometry x="230" y="430" width="120" height="80" as="geometry" />
        </mxCell>
        <mxCell id="fCYQi03bteLUAOn5DDM0-6" value="6" style="ellipse;whiteSpace=wrap;html=1;" vertex="1" parent="1">
          <mxGeometry x="400" y="430" width="120" height="80" as="geometry" />
        </mxCell>
        <mxCell id="fCYQi03bteLUAOn5DDM0-7" value="7" style="ellipse;whiteSpace=wrap;html=1;" vertex="1" parent="1">
          <mxGeometry x="560" y="430" width="120" height="80" as="geometry" />
        </mxCell>
      </root>
    </mxGraphModel>
  </diagram>
</mxfile>
